<mxfile host="app.diagrams.net" modified="2023-05-26T08:51:01.987Z" agent="Mozilla/5.0 (Windows NT 10.0; Win64; x64) AppleWebKit/537.36 (KHTML, like Gecko) Chrome/113.0.0.0 Safari/537.36" version="21.3.2" etag="5Sy5Ktg01AMJLSTtFSJ9" type="github">
  <diagram name="Page-1" id="ZP4Xa6vWz7Jh7SALV5v1">
    <mxGraphModel>
      <root>
        <mxCell id="0" />
        <mxCell id="1" parent="0" />
      </root>
    </mxGraphModel>
  </diagram>
</mxfile>
